<svg width="128" height="128" viewBox="0 0 128 128" fill="none" xmlns="http://www.w3.org/2000/svg">
<path d="M0 29.087C0 13.0227 13.0227 0 29.087 0H98.913C114.977 0 128 13.0227 128 29.087V98.913C128 114.977 114.977 128 98.913 128H29.087C13.0227 128 0 114.977 0 98.913V29.087Z" fill="url(#paint0_linear_113_2)"/>
<path d="M91.0048 36.0566C91.5979 35.5176 91.9756 35.5713 92.4069 36.1103C93.4852 37.5115 94.6174 38.9128 95.7495 40.314C96.1269 40.7451 95.9651 41.015 95.6417 41.2845C93.2694 43.3863 90.8431 45.5421 88.4169 47.644C84.5888 50.9854 80.5989 54.1113 77.5796 58.315C76.2855 60.0935 74.7757 61.7106 74.0748 63.9203C74.3983 63.8664 74.6142 63.5969 74.8838 63.3813C78.1727 60.4711 81.731 57.8301 85.6669 55.9976C91.8674 53.0873 98.4455 50.9854 104.862 48.4524C105.563 48.1829 105.725 48.56 105.886 49.045C106.533 50.7696 107.073 52.4404 107.72 54.165C107.935 54.8116 107.611 54.866 107.18 55.0276C104.538 55.9977 101.842 57.0216 99.2006 58.0455C94.9951 59.7163 90.6815 61.0636 86.6917 63.3271C83.5105 65.1595 80.5449 67.3154 77.849 69.9024C78.2803 69.9563 78.6038 69.6867 78.9811 69.525C85.2355 66.7225 91.7058 64.9443 98.5532 64.9982C103.46 65.0521 108.313 65.0521 113.219 64.9982C114.082 64.9982 114.351 65.2135 114.351 66.1834C114.357 70.5489 114.351 74.7531 114.351 79.0108C109.283 79.0108 104.215 79.1186 99.2006 79.0108C90.3043 78.8491 82.594 82.0288 75.5848 87.4182C71.8945 90.155 68.9363 92.9718 63.9732 92.9692C63.9624 92.9693 63.9514 92.9692 63.9406 92.9692C63.9297 92.9692 63.9189 92.9698 63.908 92.9697C58.9448 92.9723 55.9867 90.155 52.2964 87.4182C45.2872 82.0288 37.5769 78.8492 28.6806 79.0108C23.6664 79.1186 18.5982 79.0108 13.5301 79.0108C13.5301 74.7531 13.5245 70.5489 13.5301 66.1834C13.5301 65.2135 13.7996 64.9982 14.6622 64.9982C19.5686 65.0521 24.4215 65.0521 29.328 64.9982C36.1754 64.9443 42.6457 66.7225 48.9001 69.525C49.2774 69.6867 49.601 69.9563 50.0322 69.9024C47.3364 67.3155 44.3706 65.1595 41.1896 63.3271C37.1997 61.0636 32.8861 59.7162 28.6806 58.0455C26.0388 57.0216 23.3429 55.9977 20.7011 55.0276C20.2698 54.866 19.946 54.8117 20.1617 54.165C20.8087 52.4404 21.3478 50.7696 21.9948 49.045C22.1566 48.56 22.3186 48.1829 23.0196 48.4524C29.4357 50.9854 36.0139 53.0874 42.2143 55.9976C46.1501 57.8301 49.7086 60.4711 52.9975 63.3813C53.267 63.5969 53.483 63.8664 53.8064 63.9203C53.1055 61.7106 51.5957 60.0935 50.3017 58.315C47.2823 54.1113 43.2924 50.9854 39.4643 47.644C37.0381 45.5422 34.6118 43.3863 32.2396 41.2845C31.9161 41.015 31.7542 40.7451 32.1317 40.314C33.2639 38.9128 34.396 37.5115 35.4743 36.1103C35.9056 35.5714 36.2833 35.5177 36.8764 36.0566C40.974 39.6675 45.1258 43.1708 49.1696 46.8355C53.0515 50.3925 56.3407 54.4887 58.8748 59.2313C60.654 62.4649 62.1635 65.8067 63.4574 69.3097C63.5649 69.632 63.6724 69.9542 63.9401 70.1697C64.2081 69.9542 64.3162 69.6322 64.4238 69.3097C65.7177 65.8067 67.2272 62.4649 69.0064 59.2313C71.5405 54.4887 74.8297 50.3926 78.7117 46.8355C82.7554 43.1708 86.9072 39.6675 91.0048 36.0566Z" fill="white"/>
<defs>
<linearGradient id="paint0_linear_113_2" x1="71.3335" y1="-3.18723" x2="56.6551" y2="131.177" gradientUnits="userSpaceOnUse">
<stop stop-color="#132391"/>
<stop offset="0.5198" stop-color="#0B177E"/>
<stop offset="1" stop-color="#050F71"/>
</linearGradient>
</defs>
</svg>
